<svg width="123" height="27" viewBox="0 0 123 27" fill="none" xmlns="http://www.w3.org/2000/svg">
<path d="M17.784 22.176H8.784L7.416 26.316H0L9.252 0.935999H17.388L26.604 26.316H19.152L17.784 22.176ZM16.02 16.776L13.284 8.568L10.584 16.776H16.02Z" fill="white"/>
<path d="M35.9598 0.935999V26.316H28.9038V0.935999H35.9598Z" fill="white"/>
<path d="M52.83 26.316L47.79 16.956H47.034V26.316H39.978V0.935999H51.102C53.142 0.935999 54.87 1.296 56.286 2.016C57.702 2.712 58.77 3.684 59.49 4.932C60.21 6.156 60.57 7.536 60.57 9.072C60.57 10.8 60.09 12.324 59.13 13.644C58.194 14.94 56.814 15.864 54.99 16.416L60.714 26.316H52.83ZM47.034 12.132H50.526C51.486 12.132 52.206 11.904 52.686 11.448C53.166 10.992 53.406 10.332 53.406 9.468C53.406 8.652 53.154 8.016 52.65 7.56C52.17 7.08 51.462 6.84 50.526 6.84H47.034V12.132Z" fill="white"/>
<path d="M77.38 21.996V16.164L88.432 0.395999H96.172V15.876H98.944V21.996H96.172V26.316H89.044V21.996H77.38ZM89.584 8.352L84.616 15.876H89.584V8.352Z" fill="white"/>
<path d="M120.991 6.228H110.191V10.224C110.647 9.744 111.271 9.36 112.063 9.072C112.855 8.784 113.731 8.64 114.691 8.64C116.419 8.64 117.859 9.036 119.011 9.828C120.187 10.62 121.051 11.664 121.603 12.96C122.155 14.256 122.431 15.672 122.431 17.208C122.431 20.04 121.627 22.272 120.019 23.904C118.411 25.512 116.179 26.316 113.323 26.316C111.331 26.316 109.603 25.98 108.139 25.308C106.699 24.612 105.595 23.652 104.827 22.428C104.059 21.204 103.663 19.8 103.639 18.216H110.515C110.587 18.768 110.827 19.248 111.235 19.656C111.643 20.064 112.243 20.268 113.035 20.268C113.875 20.268 114.511 19.98 114.943 19.404C115.375 18.828 115.591 18.06 115.591 17.1C115.591 16.164 115.363 15.456 114.907 14.976C114.451 14.472 113.791 14.22 112.927 14.22C112.279 14.22 111.751 14.388 111.343 14.724C110.959 15.036 110.731 15.432 110.659 15.912H103.783V0H120.991V6.228Z" fill="white"/>
</svg>
