<svg width="156" height="46" viewBox="0 0 156 46" fill="none" xmlns="http://www.w3.org/2000/svg">
<path d="M30.024 4.968L32.904 4.896C34.44 4.896 36.024 5.16 37.656 5.688C40.728 6.648 42.264 8.736 42.264 11.952C42.264 14.112 41.448 16.248 39.816 18.36C37.56 21.144 34.632 22.944 31.032 23.76C30.936 23.76 30.888 23.832 30.888 23.976C30.888 24.12 30.936 24.192 31.032 24.192C31.128 24.192 31.344 24.216 31.68 24.264C32.064 24.312 32.448 24.384 32.832 24.48C33.264 24.528 33.624 24.576 33.912 24.624C35.688 25.008 37.104 25.752 38.16 26.856C39.264 27.96 39.816 29.376 39.816 31.104C39.816 34.032 38.736 36.648 36.576 38.952C32.592 43.224 27.36 45.36 20.88 45.36C16.512 45.36 12.912 44.616 10.08 43.128C9.36 42.744 8.64 42.552 7.92 42.552C7.2 42.552 6.624 42.672 6.192 42.912C5.76 43.104 5.04 43.512 4.032 44.136C2.496 45.048 1.44 45.504 0.864 45.504C0.288 45.504 0 45.36 0 45.072C0 44.976 0.048 44.904 0.144 44.856C2.112 44.52 3.648 43.368 4.752 41.4C6.432 38.568 9.168 33.672 12.96 26.712C16.8 19.704 19.272 15.072 20.376 12.816C21.48 10.512 22.128 9.168 22.32 8.784C22.944 7.632 24.36 6.672 26.568 5.904C25.848 5.856 24.6 5.832 22.824 5.832C21.048 5.832 18.336 6.168 14.688 6.84C9.696 7.752 7.2 9.744 7.2 12.816C7.2 13.968 7.584 14.784 8.352 15.264C8.592 15.36 8.568 15.504 8.28 15.696C8.04 15.84 7.776 15.84 7.488 15.696C7.2 15.504 6.744 14.952 6.12 14.04C5.16 12.6 4.68 11.352 4.68 10.296C4.68 9.24 4.944 8.328 5.472 7.56C6.048 6.744 7.152 6.168 8.784 5.832C11.232 5.256 13.896 4.968 16.776 4.968C16.872 4.968 16.944 4.968 16.992 4.968L27.72 4.896C28.44 4.944 29.208 4.968 30.024 4.968ZM32.112 21.96C33.456 21.432 34.56 20.64 35.424 19.584C36.336 18.48 37.056 17.184 37.584 15.696C38.16 14.208 38.448 12.984 38.448 12.024C38.448 8.52 37.008 6.552 34.128 6.12C33.696 6.072 33.168 6.048 32.544 6.048C30.048 6.048 28.344 6.624 27.432 7.776C26.52 8.88 25.584 10.248 24.624 11.88C23.712 13.464 22.944 14.856 22.32 16.056C21.696 17.208 20.88 18.792 19.872 20.808C18.912 22.776 17.592 25.392 15.912 28.656C14.232 31.92 12.624 35.088 11.088 38.16C10.848 38.688 10.728 39.216 10.728 39.744C10.728 40.8 11.304 41.76 12.456 42.624C14.424 43.776 16.464 44.352 18.576 44.352C20.928 44.352 23.4 43.848 25.992 42.84C28.632 41.832 30.888 40.2 32.76 37.944C34.68 35.64 35.64 33 35.64 30.024C35.64 28.152 34.944 26.832 33.552 26.064C32.16 25.248 30.72 24.84 29.232 24.84C26.304 24.84 23.208 25.272 19.944 26.136C19.896 26.136 19.872 26.088 19.872 25.992C19.872 25.752 20.208 25.368 20.88 24.84C21.552 24.264 22.032 23.832 22.32 23.544C22.608 23.256 22.944 23.112 23.328 23.112C25.392 23.112 27.048 23.04 28.296 22.896C29.544 22.752 30.816 22.44 32.112 21.96Z" fill="white"/>
<path d="M68.7977 0C69.9977 0 70.5977 0.768 70.5977 2.304C70.5977 4.848 68.5097 8.952 64.3337 14.616C60.7817 19.56 55.8377 24.888 49.5017 30.6C48.2537 32.904 47.3177 35.376 46.6937 38.016C46.5497 38.544 46.4777 39.048 46.4777 39.528C46.4777 41.4 47.3657 42.336 49.1417 42.336C49.4297 42.336 49.7417 42.312 50.0777 42.264C52.0937 41.88 55.3097 38.952 59.7257 33.48C59.8217 33.576 59.8697 33.792 59.8697 34.128C59.8697 34.416 59.2457 35.352 57.9977 36.936C56.7497 38.472 55.8137 39.552 55.1897 40.176C52.4537 42.912 49.9817 44.28 47.7737 44.28C45.2777 44.28 44.0297 43.08 44.0297 40.68C44.0297 38.76 44.7977 36.12 46.3337 32.76L43.3097 36.072C42.9737 36.552 42.8057 36.504 42.8057 35.928C42.8057 35.544 42.9737 35.136 43.3097 34.704C43.6937 34.224 44.4377 33.336 45.5417 32.04C46.6457 30.744 47.4617 29.784 47.9897 29.16C48.6617 27.912 50.0297 25.2 52.0937 21.024C56.4617 12.192 59.7257 6.336 61.8857 3.456C62.4137 3.264 63.4457 2.64 64.9817 1.584C66.5657 0.528 67.8377 0 68.7977 0ZM63.1097 13.896C66.5177 8.328 68.2217 4.416 68.2217 2.16C68.2217 1.584 68.0057 1.296 67.5737 1.296C65.9897 1.296 62.8697 5.472 58.2137 13.824C54.2777 20.928 51.7817 25.56 50.7257 27.72C55.4777 23.784 59.6057 19.176 63.1097 13.896Z" fill="white"/>
<path d="M75.9881 26.928C75.9881 29.52 74.6921 32.688 72.1001 36.432C71.0921 37.776 70.1801 38.832 69.3641 39.6C72.5321 39.6 75.4601 37.824 78.1481 34.272C78.3881 34.032 78.5081 34.128 78.5081 34.56C78.5081 34.944 78.4121 35.256 78.2201 35.496C75.7721 38.904 72.9881 40.608 69.8681 40.608C69.4361 40.608 69.0041 40.584 68.5721 40.536C65.8841 43.032 62.8601 44.28 59.5001 44.28C57.5321 44.28 56.5481 43.44 56.5481 41.76C56.5481 39.024 57.8681 35.832 60.5081 32.184C62.1881 29.784 64.2281 27.888 66.6281 26.496C69.1721 24.912 71.3321 24.12 73.1081 24.12C75.0281 24.12 75.9881 25.056 75.9881 26.928ZM72.5321 27C72.5321 25.848 72.1001 25.272 71.2361 25.272C70.9481 25.272 70.3961 25.44 69.5801 25.776C68.7641 26.064 67.7321 26.856 66.4841 28.152C65.2841 29.4 64.1321 31.008 63.0281 32.976C60.9641 36.384 59.9321 38.928 59.9321 40.608C59.9321 42.24 60.3641 43.056 61.2281 43.056C61.9001 43.056 62.6441 42.84 63.4601 42.408C64.2761 41.928 64.9241 41.448 65.4041 40.968C66.8921 39.384 68.4521 37.248 70.0841 34.56C71.7161 31.824 72.5321 29.304 72.5321 27Z" fill="white"/>
<path d="M99.2188 25.488C99.2188 26.112 98.8108 27 97.9948 28.152C97.2268 29.304 96.0508 31.488 94.4668 34.704C92.8828 37.872 92.0908 39.888 92.0908 40.752C92.0908 41.568 92.4268 41.976 93.0988 41.976C93.8188 41.976 94.7308 41.544 95.8348 40.68C96.9868 39.768 97.9948 38.808 98.8588 37.8C99.7708 36.792 100.971 35.376 102.459 33.552C102.555 33.696 102.603 33.912 102.603 34.2C102.603 34.488 102.291 35.04 101.667 35.856C99.2188 39.168 97.1548 41.472 95.4748 42.768C93.7948 44.064 92.2828 44.712 90.9388 44.712C89.4028 44.712 88.6348 43.968 88.6348 42.48C88.6348 40.944 89.4028 38.64 90.9388 35.568C92.5228 32.448 93.7948 29.832 94.7548 27.72C95.2348 26.712 94.8988 26.52 93.7468 27.144C88.2748 30.552 84.0268 36.264 81.0028 44.28C80.7148 44.28 80.1388 44.424 79.2748 44.712C78.4588 45.048 77.9788 45.216 77.8348 45.216C77.6428 45.216 77.6428 44.976 77.8348 44.496C78.0748 44.064 78.4828 43.128 79.0588 41.688C79.6828 40.248 80.4268 38.424 81.2908 36.216C82.9708 31.992 84.0988 29.208 84.6748 27.864C82.1308 30.6 79.8268 33.336 77.7628 36.072C77.4268 36.552 77.2588 36.504 77.2588 35.928C77.2588 35.544 77.3788 35.208 77.6188 34.92C81.0268 30.696 83.6428 27.264 85.4668 24.624C87.8668 24.288 89.2588 23.952 89.6428 23.616C90.0268 23.28 90.2668 23.112 90.3628 23.112C90.4588 23.112 90.5068 23.208 90.5068 23.4C90.5548 23.592 90.4108 23.88 90.0748 24.264C89.7868 24.6 87.9148 27.984 84.4588 34.416C86.7628 31.392 89.4508 28.728 92.5228 26.424C94.4908 24.984 96.0988 24.264 97.3468 24.264C98.5948 24.264 99.2188 24.672 99.2188 25.488Z" fill="white"/>
<path d="M141.128 5.112C141.08 5.112 141.008 5.064 140.912 4.968C140.72 3.816 140 3 138.752 2.52C138.176 2.328 137.552 2.232 136.88 2.232C136.208 2.232 135.464 2.376 134.648 2.664C132.344 3.48 129.8 6.36 127.016 11.304C124.232 16.248 121.352 22.008 118.376 28.584C118.328 28.632 117.752 29.808 116.648 32.112C114.2 37.2 112.976 40.176 112.976 41.04C112.976 41.856 113.264 42.264 113.84 42.264C114.896 42.264 116.528 41.184 118.736 39.024C120.992 36.816 122.648 34.968 123.704 33.48C123.8 33.576 123.848 33.792 123.848 34.128C123.848 34.416 123.512 34.992 122.84 35.856C118.568 41.52 114.608 44.352 110.96 44.352C109.808 44.352 109.232 43.896 109.232 42.984C109.232 41.304 110.168 39 112.04 36.072C110.36 37.848 108.608 39.528 106.784 41.112C104.192 43.224 102.008 44.28 100.232 44.28C99.3684 44.28 98.9364 43.752 98.9364 42.696C98.9364 42.456 98.9604 42.288 99.0084 42.192C99.3444 39.504 100.448 36.624 102.32 33.552C104.24 30.48 106.328 28.08 108.584 26.352C110.12 25.104 111.968 24.48 114.128 24.48C115.232 24.48 116.336 24.48 117.44 24.48C118.208 23.184 119.432 20.952 121.112 17.784C122.792 14.568 123.992 12.36 124.712 11.16C129.08 3.768 133.904 0.0719991 139.184 0.0719991C139.856 0.0719991 140.432 0.263999 140.912 0.648C141.44 1.032 141.68 1.56 141.632 2.232L141.488 4.824C141.488 5.016 141.368 5.112 141.128 5.112ZM116 26.784C116 25.872 115.376 25.416 114.128 25.416C112.928 25.416 111.584 26.112 110.096 27.504C108.608 28.896 106.976 31.152 105.2 34.272C103.472 37.344 102.608 39.576 102.608 40.968C102.608 41.544 102.8 41.832 103.184 41.832C104.576 41.832 107.048 39.72 110.6 35.496C114.2 31.224 116 28.32 116 26.784Z" fill="white"/>
<path d="M133.277 39.888C132.365 40.896 131.092 41.904 129.46 42.912C127.876 43.872 126.412 44.352 125.068 44.352C123.772 44.352 123.124 43.896 123.124 42.984C123.124 42.12 123.364 41.16 123.844 40.104C124.18 39.336 126.101 35.256 129.605 27.864C127.061 30.6 124.757 33.336 122.692 36.072C122.356 36.552 122.188 36.504 122.188 35.928C122.188 35.544 122.309 35.208 122.549 34.92C125.956 30.696 128.572 27.264 130.396 24.624C132.796 24.288 134.237 23.904 134.717 23.472C135.197 23.04 135.46 23.016 135.508 23.4C135.508 23.592 135.389 23.832 135.148 24.12C134.956 24.36 133.012 27.96 129.316 34.92C127.684 37.992 126.868 40.104 126.868 41.256C126.868 41.928 127.205 42.264 127.877 42.264C129.365 42.264 132.053 39.96 135.941 35.352L137.525 33.552C138.101 34.128 136.685 36.24 133.277 39.888ZM137.309 16.632C136.157 16.632 135.581 16.008 135.581 14.76C135.581 14.184 135.893 13.68 136.516 13.248C137.188 12.816 137.765 12.6 138.245 12.6C138.773 12.6 139.181 12.816 139.469 13.248C139.757 13.632 139.9 13.944 139.9 14.184C139.9 15.048 139.589 15.672 138.965 16.056C138.341 16.44 137.788 16.632 137.309 16.632Z" fill="white"/>
<path d="M139.784 35.568C139.064 37.44 138.704 39.192 138.704 40.824C138.704 42.408 139.688 43.2 141.656 43.2C142.376 43.2 143.312 42.984 144.464 42.552C146.336 41.928 148.28 40.728 150.296 38.952C152.312 37.176 153.968 35.448 155.264 33.768C155.408 33.912 155.48 34.104 155.48 34.344C155.48 34.584 155.312 34.944 154.976 35.424C153.2 37.872 150.992 40.032 148.352 41.904C145.712 43.776 143.024 44.712 140.288 44.712C136.736 44.712 134.96 43.416 134.96 40.824C134.96 38.76 136.064 35.904 138.272 32.256C139.52 30.288 141.296 28.464 143.6 26.784C145.904 25.056 148.112 24.192 150.224 24.192C152.336 24.192 153.392 25.2 153.392 27.216C153.392 29.328 152.552 30.936 150.872 32.04C149.24 33.096 147.368 33.96 145.256 34.632C143.192 35.256 141.368 35.568 139.784 35.568ZM140.36 34.128C140.648 34.128 141.176 34.128 141.944 34.128C142.76 34.128 143.72 33.96 144.824 33.624C147.56 32.808 149.336 31.272 150.152 29.016C150.392 28.344 150.512 27.72 150.512 27.144C150.512 26.52 150.32 26.088 149.936 25.848C149.552 25.56 149.216 25.416 148.928 25.416C145.808 25.464 142.952 28.368 140.36 34.128Z" fill="white"/>
</svg>
