<svg width="88" height="26" viewBox="0 0 88 26" fill="none" xmlns="http://www.w3.org/2000/svg">
<path d="M12.564 12.456C13.476 12.6 14.304 12.972 15.048 13.572C15.816 14.172 16.416 14.916 16.848 15.804C17.304 16.692 17.532 17.64 17.532 18.648C17.532 19.92 17.208 21.072 16.56 22.104C15.912 23.112 14.964 23.916 13.716 24.516C12.492 25.092 11.04 25.38 9.36 25.38H0V0.288001H9C10.704 0.288001 12.156 0.576 13.356 1.152C14.556 1.704 15.456 2.46 16.056 3.42C16.656 4.38 16.956 5.46 16.956 6.66C16.956 8.148 16.548 9.384 15.732 10.368C14.94 11.328 13.884 12.024 12.564 12.456ZM3.276 11.124H8.784C10.32 11.124 11.508 10.764 12.348 10.044C13.188 9.324 13.608 8.328 13.608 7.056C13.608 5.784 13.188 4.788 12.348 4.068C11.508 3.348 10.296 2.988 8.712 2.988H3.276V11.124ZM9.072 22.68C10.704 22.68 11.976 22.296 12.888 21.528C13.8 20.76 14.256 19.692 14.256 18.324C14.256 16.932 13.776 15.84 12.816 15.048C11.856 14.232 10.572 13.824 8.964 13.824H3.276V22.68H9.072Z" fill="white"/>
<path d="M52.9301 0.468V25.38H49.6541V6.804L41.3741 25.38H39.0701L30.7541 6.768V25.38H27.4781V0.468H31.0061L40.2221 21.06L49.4381 0.468H52.9301Z" fill="white"/>
<path d="M82.8939 7.56C82.1979 6.096 81.1899 4.968 79.8699 4.176C78.5499 3.36 77.0139 2.952 75.2619 2.952C73.5099 2.952 71.9259 3.36 70.5099 4.176C69.1179 4.968 68.0139 6.12 67.1979 7.632C66.4059 9.12 66.0099 10.848 66.0099 12.816C66.0099 14.784 66.4059 16.512 67.1979 18C68.0139 19.488 69.1179 20.64 70.5099 21.456C71.9259 22.248 73.5099 22.644 75.2619 22.644C77.7099 22.644 79.7259 21.912 81.3099 20.448C82.8939 18.984 83.8179 17.004 84.0819 14.508H74.0739V11.844H87.5739V14.364C87.3819 16.428 86.7339 18.324 85.6299 20.052C84.5259 21.756 83.0739 23.112 81.2739 24.12C79.4739 25.104 77.4699 25.596 75.2619 25.596C72.9339 25.596 70.8099 25.056 68.8899 23.976C66.9699 22.872 65.4459 21.348 64.3179 19.404C63.2139 17.46 62.6619 15.264 62.6619 12.816C62.6619 10.368 63.2139 8.172 64.3179 6.228C65.4459 4.26 66.9699 2.736 68.8899 1.656C70.8099 0.552 72.9339 0 75.2619 0C77.9259 0 80.2779 0.66 82.3179 1.98C84.3819 3.3 85.8819 5.16 86.8179 7.56H82.8939Z" fill="white"/>
</svg>
