<svg width="100" height="100" viewBox="0 0 100 100" fill="none" xmlns="http://www.w3.org/2000/svg">
<path fill-rule="evenodd" clip-rule="evenodd" d="M75 16.6667H79.1667C83.75 16.6667 87.5 20.4167 87.5 25V83.3333C87.5 87.9167 83.75 91.6667 79.1667 91.6667H20.8333C16.2083 91.6667 12.5 87.9167 12.5 83.3333V25C12.5 20.4167 16.2083 16.6667 20.8333 16.6667H25V12.5C25 10.2083 26.875 8.33334 29.1667 8.33334C31.4583 8.33334 33.3333 10.2083 33.3333 12.5V16.6667H66.6667V12.5C66.6667 10.2083 68.5417 8.33334 70.8333 8.33334C73.125 8.33334 75 10.2083 75 12.5V16.6667ZM33.3333 45.8333H66.6667C68.9583 45.8333 70.8333 47.7083 70.8333 50C70.8333 52.2917 68.9583 54.1667 66.6667 54.1667H33.3333C31.0417 54.1667 29.1667 52.2917 29.1667 50C29.1667 47.7083 31.0417 45.8333 33.3333 45.8333ZM75 83.3333H25C22.7083 83.3333 20.8333 81.4583 20.8333 79.1667V37.5H79.1667V79.1667C79.1667 81.4583 77.2917 83.3333 75 83.3333ZM33.3333 62.5H54.1667C56.4583 62.5 58.3333 64.375 58.3333 66.6667C58.3333 68.9583 56.4583 70.8333 54.1667 70.8333H33.3333C31.0417 70.8333 29.1667 68.9583 29.1667 66.6667C29.1667 64.375 31.0417 62.5 33.3333 62.5Z" fill="#E30B5C"/>
</svg>
