<svg width="170" height="70" viewBox="0 0 170 70" fill="none" xmlns="http://www.w3.org/2000/svg">
<path d="M35.136 16.488C35.952 15.144 36.36 13.632 36.36 11.952C36.36 10.272 36.096 8.952 35.568 7.992C34.656 6.456 32.88 5.688 30.24 5.688C25.344 5.688 20.568 7.656 15.912 11.592C12.504 14.616 9.696 18.24 7.488 22.464C5.328 26.64 4.248 30.384 4.248 33.696C4.248 36.96 4.992 39.432 6.48 41.112C8.016 42.744 9.96 43.728 12.312 44.064C13.56 44.256 14.784 44.352 15.984 44.352C19.632 44.352 23.088 43.704 26.352 42.408C31.584 40.392 35.784 37.416 38.952 33.48C39.432 32.904 39.672 32.904 39.672 33.48C39.672 33.816 39.48 34.248 39.096 34.776C36.072 38.808 32.016 41.88 26.928 43.992C23.328 45.48 19.512 46.224 15.48 46.224C8.952 46.224 4.44 44.496 1.944 41.04C0.648 39.264 0 37.056 0 34.416C0 29.904 1.248 25.512 3.744 21.24C6.24 16.92 9.456 13.272 13.392 10.296C18.432 6.504 23.88 4.608 29.736 4.608C32.376 4.608 34.656 5.088 36.576 6.048C38.544 6.96 39.528 8.184 39.528 9.72C39.528 10.392 39.072 11.472 38.16 12.96C37.296 14.4 36.744 15.456 36.504 16.128C36.408 16.464 36.048 16.656 35.424 16.704C35.232 16.656 35.136 16.584 35.136 16.488Z" fill="white"/>
<path d="M60.2168 33.48C60.3128 33.576 60.3608 33.768 60.3608 34.056C60.3608 34.344 60.0247 34.944 59.3527 35.856C55.0807 41.52 51.1208 44.352 47.4728 44.352C46.3208 44.352 45.7448 43.896 45.7448 42.984C45.7448 41.304 46.6808 39 48.5527 36.072C46.8727 37.848 44.9528 39.672 42.7928 41.544C40.6328 43.368 38.6168 44.28 36.7448 44.28C35.8808 44.28 35.4487 43.752 35.4487 42.696C35.4487 42.456 35.4727 42.288 35.5207 42.192C35.8567 39.456 36.9607 36.576 38.8327 33.552C42.5767 27.504 46.4647 24.48 50.4967 24.48H58.7768C59.0168 24.48 59.1367 24.576 59.1367 24.768C59.1367 25.152 58.9207 25.344 58.4888 25.344C57.8167 25.344 56.9767 26.136 55.9688 27.72C54.9608 29.256 53.6168 31.656 51.9368 34.92C50.3048 38.136 49.4888 40.176 49.4888 41.04C49.4888 41.856 49.8247 42.264 50.4967 42.264C51.6007 42.264 53.1367 41.304 55.1048 39.384C56.1608 38.28 56.9528 37.416 57.4808 36.792C58.0088 36.168 58.3447 35.76 58.4888 35.568C58.6808 35.376 59.2568 34.68 60.2168 33.48ZM52.5127 26.784C52.5127 25.872 51.8888 25.416 50.6408 25.416C49.4408 25.416 48.0967 26.112 46.6087 27.504C45.1208 28.896 43.4888 31.152 41.7127 34.272C39.9847 37.344 39.1208 39.576 39.1208 40.968C39.1208 41.544 39.3128 41.832 39.6968 41.832C41.0888 41.832 43.5608 39.72 47.1128 35.496C50.7127 31.224 52.5127 28.32 52.5127 26.784Z" fill="white"/>
<path d="M84.6928 0C85.8928 0 86.4928 0.768 86.4928 2.304C86.4928 4.848 84.4048 8.952 80.2288 14.616C76.6768 19.56 71.7328 24.888 65.3968 30.6C64.1488 32.904 63.2128 35.376 62.5888 38.016C62.4448 38.544 62.3728 39.048 62.3728 39.528C62.3728 41.4 63.2608 42.336 65.0368 42.336C65.3248 42.336 65.6368 42.312 65.9728 42.264C67.9888 41.88 71.2048 38.952 75.6208 33.48C75.7168 33.576 75.7648 33.792 75.7648 34.128C75.7648 34.416 75.1408 35.352 73.8928 36.936C72.6448 38.472 71.7088 39.552 71.0848 40.176C68.3488 42.912 65.8768 44.28 63.6688 44.28C61.1728 44.28 59.9248 43.08 59.9248 40.68C59.9248 38.76 60.6928 36.12 62.2288 32.76L59.2048 36.072C58.8688 36.552 58.7008 36.504 58.7008 35.928C58.7008 35.544 58.8688 35.136 59.2048 34.704C59.5888 34.224 60.3328 33.336 61.4368 32.04C62.5408 30.744 63.3568 29.784 63.8848 29.16C64.5568 27.912 65.9248 25.2 67.9888 21.024C72.3568 12.192 75.6208 6.336 77.7808 3.456C78.3088 3.264 79.3408 2.64 80.8768 1.584C82.4608 0.528 83.7328 0 84.6928 0ZM79.0048 13.896C82.4128 8.328 84.1168 4.416 84.1168 2.16C84.1168 1.584 83.9008 1.296 83.4688 1.296C81.8848 1.296 78.7648 5.472 74.1088 13.824C70.1728 20.928 67.6768 25.56 66.6208 27.72C71.3728 23.784 75.5008 19.176 79.0048 13.896Z" fill="white"/>
<path d="M87.6353 30.888C87.4433 30.888 87.3952 30.72 87.4912 30.384C87.5872 30.048 87.6353 29.616 87.6353 29.088C87.6353 28.512 87.4913 27.888 87.2033 27.216C86.7233 25.92 85.9312 25.272 84.8272 25.272C83.7712 25.272 82.9072 25.608 82.2353 26.28C81.6113 26.904 81.2992 27.48 81.2992 28.008C81.2992 28.536 81.3232 28.992 81.3712 29.376C81.4672 29.712 81.7552 30.192 82.2353 30.816C82.7153 31.44 83.2913 32.088 83.9632 32.76C85.7872 34.68 86.6992 36.384 86.6992 37.872C86.6992 39.312 86.3152 40.584 85.5472 41.688C83.9152 44.088 81.6113 45.288 78.6353 45.288C77.0993 45.288 75.6592 44.976 74.3152 44.352C72.6352 43.584 71.7952 42.408 71.7952 40.824C71.7952 40.296 71.9392 39.624 72.2272 38.808C72.5153 37.944 72.9232 37.296 73.4512 36.864C73.7393 36.72 73.9073 36.768 73.9553 37.008C73.6193 38.016 73.4512 38.856 73.4512 39.528C73.4512 41.016 74.4832 42.384 76.5472 43.632C77.1232 44.016 77.7473 44.208 78.4193 44.208C80.7712 44.208 82.2833 43.8 82.9553 42.984C83.6753 42.12 84.0352 41.088 84.0352 39.888C84.0352 38.688 83.2673 37.272 81.7312 35.64C79.9072 33.624 78.9952 31.92 78.9952 30.528C78.4193 31.344 77.2192 32.88 75.3952 35.136C75.0112 35.664 74.7952 35.712 74.7473 35.28C74.6993 34.848 74.8913 34.368 75.3232 33.84C76.1393 32.976 78.0112 30.36 80.9392 25.992C82.1872 24.6 83.6753 23.904 85.4033 23.904C88.0912 23.904 89.4593 24.84 89.5072 26.712C89.5072 27.672 89.1712 28.824 88.4993 30.168C88.2593 30.648 87.9713 30.888 87.6353 30.888Z" fill="white"/>
<path d="M125.322 4.536C125.322 4.728 125.202 4.824 124.962 4.824C124.77 4.824 124.674 4.776 124.674 4.68C124.674 3.384 123.714 2.736 121.794 2.736C119.874 2.736 118.074 3.096 116.394 3.816C114.762 4.488 113.25 5.496 111.858 6.84C110.514 8.184 109.29 9.576 108.186 11.016C107.13 12.456 106.074 14.232 105.018 16.344C103.962 18.408 103.098 20.184 102.426 21.672C101.754 23.16 100.962 24.984 100.05 27.144C99.1856 29.256 98.5376 30.792 98.1056 31.752C98.0576 31.944 98.0816 32.04 98.1776 32.04C103.17 27.048 106.842 24.552 109.194 24.552C110.01 24.552 110.418 25.128 110.418 26.28V26.928C109.842 30.912 107.898 34.896 104.586 38.88C101.322 42.816 97.7936 44.784 94.0016 44.784C91.6496 44.784 90.4736 44.136 90.4736 42.84C90.4736 41.928 91.7456 38.568 94.2896 32.76C93.8576 33.24 93.2816 33.864 92.5616 34.632C91.8896 35.4 91.4336 35.952 91.1936 36.288C91.0016 36.576 90.8816 36.504 90.8336 36.072C90.7856 35.592 90.9536 35.136 91.3376 34.704C91.7216 34.224 92.4656 33.336 93.5696 32.04C94.6736 30.744 95.4896 29.784 96.0176 29.16C100.722 19.272 105.786 11.664 111.21 6.336C115.482 2.16 119.202 0.0719991 122.37 0.0719991C123.138 0.0719991 123.81 0.287999 124.386 0.719999C124.962 1.104 125.274 1.68 125.322 2.448V4.536ZM106.89 27.936C106.89 27.312 106.674 27 106.242 27C105.522 27 104.346 27.768 102.714 29.304C101.082 30.84 99.7616 32.208 98.7536 33.408C95.2976 37.344 93.5696 40.248 93.5696 42.12C93.5696 43.08 94.1696 43.56 95.3696 43.56C96.5696 43.56 98.0096 42.72 99.6896 41.04C100.938 39.888 102.45 37.776 104.226 34.704C106.002 31.632 106.89 29.376 106.89 27.936Z" fill="white"/>
<path d="M113.914 35.568C113.194 37.44 112.834 39.192 112.834 40.824C112.834 42.408 113.818 43.2 115.786 43.2C116.506 43.2 117.442 42.984 118.594 42.552C120.466 41.928 122.41 40.728 124.426 38.952C126.442 37.176 128.098 35.448 129.394 33.768C129.538 33.912 129.61 34.104 129.61 34.344C129.61 34.584 129.442 34.944 129.106 35.424C127.33 37.872 125.122 40.032 122.482 41.904C119.842 43.776 117.154 44.712 114.418 44.712C110.866 44.712 109.09 43.416 109.09 40.824C109.09 38.76 110.194 35.904 112.402 32.256C113.65 30.288 115.426 28.464 117.73 26.784C120.034 25.056 122.242 24.192 124.354 24.192C126.466 24.192 127.522 25.2 127.522 27.216C127.522 29.328 126.682 30.936 125.002 32.04C123.37 33.096 121.498 33.96 119.386 34.632C117.322 35.256 115.498 35.568 113.914 35.568ZM114.49 34.128C114.778 34.128 115.306 34.128 116.074 34.128C116.89 34.128 117.85 33.96 118.954 33.624C121.69 32.808 123.466 31.272 124.282 29.016C124.522 28.344 124.642 27.72 124.642 27.144C124.642 26.52 124.45 26.088 124.066 25.848C123.682 25.56 123.346 25.416 123.058 25.416C119.938 25.464 117.082 28.368 114.49 34.128Z" fill="white"/>
<path d="M146.963 29.88C146.963 27.672 146.267 26.568 144.875 26.568C143.531 26.568 141.587 28.032 139.043 30.96C136.547 33.84 134.651 36.936 133.355 40.248L131.843 44.28C131.555 44.28 130.979 44.424 130.115 44.712C129.251 45 128.795 45.144 128.747 45.144C128.507 45.144 128.483 44.928 128.675 44.496C128.915 44.064 129.323 43.128 129.899 41.688C130.523 40.248 131.267 38.424 132.131 36.216C133.811 31.992 134.939 29.208 135.515 27.864C132.971 30.6 130.667 33.336 128.603 36.072C128.267 36.552 128.099 36.504 128.099 35.928C128.099 35.544 128.219 35.208 128.459 34.92C131.867 30.696 134.483 27.264 136.307 24.624C138.707 24.288 140.099 23.952 140.483 23.616C140.867 23.28 141.107 23.112 141.203 23.112C141.299 23.112 141.347 23.208 141.347 23.4C141.395 23.592 141.275 23.856 140.987 24.192C140.699 24.528 139.091 27.384 136.163 32.76C137.459 30.792 139.091 28.848 141.059 26.928C143.075 25.008 144.779 24.048 146.171 24.048C147.611 24.048 148.547 24.648 148.979 25.848C149.171 26.088 149.267 26.352 149.267 26.64C149.267 26.928 149.219 27.312 149.123 27.792C149.027 28.224 148.931 28.584 148.835 28.872C148.307 30.072 147.923 30.792 147.683 31.032C147.539 31.272 147.299 31.416 146.963 31.464C146.915 31.416 146.867 31.368 146.819 31.32C146.915 30.792 146.963 30.312 146.963 29.88Z" fill="white"/>
<path d="M126.188 58.032L126.044 59.832C126.044 61.992 126.74 63.648 128.132 64.8C129.476 66 131.132 66.6 133.1 66.6C135.02 66.6 136.772 66.264 138.356 65.592C139.892 64.968 141.26 64.272 142.46 63.504C143.66 62.736 144.812 61.752 145.916 60.552C147.02 59.352 147.98 58.296 148.796 57.384C149.612 56.52 150.5 55.224 151.46 53.496C152.468 51.768 153.212 50.496 153.692 49.68C154.22 48.864 154.94 47.4 155.852 45.288C156.764 43.176 157.34 41.832 157.58 41.256C157.868 40.632 158.468 39.168 159.38 36.864C160.292 34.56 160.796 33.264 160.892 32.976C159.308 35.568 157.052 38.112 154.124 40.608C151.244 43.056 148.892 44.28 147.068 44.28C146.204 44.28 145.772 43.752 145.772 42.696V42.192C146.108 39.504 147.236 36.6 149.156 33.48C152.9 27.48 156.788 24.48 160.82 24.48H169.1C169.34 24.48 169.46 24.576 169.46 24.768C169.46 25.152 169.244 25.344 168.812 25.344C167.756 25.344 166.892 25.968 166.22 27.216C164.924 29.28 162.644 34.104 159.38 41.688C156.164 49.224 153.908 54.12 152.612 56.376C151.316 58.68 149.588 60.96 147.428 63.216C143.588 67.296 139.436 69.336 134.972 69.336C133.052 69.336 131.252 68.904 129.572 68.04C126.596 66.456 125.108 63.84 125.108 60.192V58.968C125.108 58.248 125.42 57.888 126.044 57.888C126.14 57.888 126.188 57.936 126.188 58.032ZM162.764 26.784C162.764 25.872 162.164 25.416 160.964 25.416C159.764 25.416 158.42 26.112 156.932 27.504C155.444 28.896 153.812 31.152 152.036 34.272C150.26 37.344 149.372 39.576 149.372 40.968C149.372 41.544 149.588 41.832 150.02 41.832C151.412 41.832 153.884 39.72 157.436 35.496C160.988 31.224 162.764 28.32 162.764 26.784Z" fill="white"/>
</svg>
