<svg width="76" height="76" viewBox="0 0 76 76" fill="none" xmlns="http://www.w3.org/2000/svg">
<path fill-rule="evenodd" clip-rule="evenodd" d="M33.8434 4.66154C33.8434 2.36987 35.7184 0.494873 38.01 0.494873C59.135 0.494873 76.1767 17.9532 75.4684 39.2032C74.8434 58.7865 58.4684 75.0365 38.885 75.4948C17.7602 75.9948 0.510193 58.9948 0.510193 37.9948C0.510193 27.1615 5.09353 17.4532 12.4269 10.6615C14.0935 9.11987 16.6769 9.16154 18.2602 10.7449L40.9267 33.3698C42.5517 34.9948 42.5517 37.6198 40.9267 39.2448C39.3017 40.8698 36.6767 40.8698 35.0517 39.2448L15.4269 19.5782C11.3019 24.5782 8.84353 30.9948 8.84353 37.9948C8.84353 54.2865 22.1352 67.4115 38.51 67.1615C54.5517 66.9115 67.76 52.9532 67.1767 36.9115C66.635 22.7032 55.9684 11.1615 42.1767 9.16154V12.9949C42.1767 15.2865 40.3017 17.1615 38.01 17.1615C35.7184 17.1615 33.8434 15.2865 33.8434 12.9949V4.66154ZM13.0102 37.9948C13.0102 35.6936 14.8757 33.8282 17.1769 33.8282C19.4781 33.8282 21.3435 35.6936 21.3435 37.9948C21.3435 40.2961 19.4781 42.1615 17.1769 42.1615C14.8757 42.1615 13.0102 40.2961 13.0102 37.9948ZM33.8434 58.8282C33.8434 56.5269 35.7092 54.6615 38.01 54.6615C40.3113 54.6615 42.1767 56.5269 42.1767 58.8282C42.1767 61.1294 40.3113 62.9948 38.01 62.9948C35.7092 62.9948 33.8434 61.1294 33.8434 58.8282ZM58.8434 33.8282C56.5425 33.8282 54.6767 35.6936 54.6767 37.9948C54.6767 40.2961 56.5425 42.1615 58.8434 42.1615C61.1446 42.1615 63.01 40.2961 63.01 37.9948C63.01 35.6936 61.1446 33.8282 58.8434 33.8282Z" fill="#E30B5C"/>
</svg>
