<svg width="84" height="74" viewBox="0 0 84 74" fill="none" xmlns="http://www.w3.org/2000/svg">
<path fill-rule="evenodd" clip-rule="evenodd" d="M42.0009 8.94665C49.3342 0.363321 62.9175 -3.13668 73.9175 4.36332C79.7509 8.36332 83.4175 15.1133 83.6675 22.1967C84.2092 38.3633 69.9175 51.3217 48.0425 71.155L47.5842 71.5716C44.4175 74.4883 39.5425 74.4883 36.3759 71.6133L35.9592 71.2383L35.7075 71.0096C13.9744 51.2637 -0.246842 38.3429 0.334242 22.2383C0.584242 15.1133 4.25091 8.36332 10.0842 4.36332C21.0842 -3.17834 34.6675 0.363321 42.0009 8.94665ZM42.0009 65.4466L42.4175 65.03C62.2509 47.0717 75.3342 35.1967 75.3342 23.155C75.3342 14.8217 69.0842 8.57165 60.7509 8.57165C54.3342 8.57165 48.0842 12.6967 45.9175 18.405H38.1259C35.9175 12.6967 29.6676 8.57165 23.2509 8.57165C14.9176 8.57165 8.66757 14.8217 8.66757 23.155C8.66757 35.1967 21.7509 47.0717 41.5842 65.03L42.0009 65.4466Z" fill="#E30B5C"/>
</svg>
