<svg width="431" height="96" viewBox="0 0 431 96" fill="none" xmlns="http://www.w3.org/2000/svg">
<path d="M13.376 62.896H28.096V70H4.416V25.328H13.376V62.896ZM49.535 70.576C46.1217 70.576 43.0497 69.8293 40.319 68.336C37.5883 66.8 35.4337 64.6453 33.855 61.872C32.319 59.0987 31.551 55.8987 31.551 52.272C31.551 48.6453 32.3403 45.4453 33.919 42.672C35.5403 39.8987 37.7377 37.7653 40.511 36.272C43.2843 34.736 46.3777 33.968 49.791 33.968C53.2043 33.968 56.2977 34.736 59.071 36.272C61.8443 37.7653 64.0203 39.8987 65.599 42.672C67.2203 45.4453 68.031 48.6453 68.031 52.272C68.031 55.8987 67.199 59.0987 65.535 61.872C63.9137 64.6453 61.695 66.8 58.879 68.336C56.1057 69.8293 52.991 70.576 49.535 70.576ZM49.535 62.768C51.1563 62.768 52.671 62.384 54.079 61.616C55.5297 60.8053 56.6817 59.6107 57.535 58.032C58.3883 56.4533 58.815 54.5333 58.815 52.272C58.815 48.9013 57.919 46.32 56.127 44.528C54.3777 42.6933 52.223 41.776 49.663 41.776C47.103 41.776 44.9483 42.6933 43.199 44.528C41.4923 46.32 40.639 48.9013 40.639 52.272C40.639 55.6427 41.471 58.2453 43.135 60.08C44.8417 61.872 46.975 62.768 49.535 62.768ZM89.3875 61.744L98.3475 34.544H107.884L94.7635 70H83.8835L70.8275 34.544H80.4275L89.3875 61.744ZM145.876 51.504C145.876 52.784 145.791 53.936 145.62 54.96H119.7C119.913 57.52 120.809 59.5253 122.388 60.976C123.967 62.4267 125.908 63.152 128.212 63.152C131.54 63.152 133.908 61.7227 135.316 58.864H144.98C143.956 62.2773 141.993 65.0933 139.092 67.312C136.191 69.488 132.628 70.576 128.404 70.576C124.991 70.576 121.919 69.8293 119.188 68.336C116.5 66.8 114.388 64.6453 112.852 61.872C111.359 59.0987 110.612 55.8987 110.612 52.272C110.612 48.6027 111.359 45.3813 112.852 42.608C114.345 39.8347 116.436 37.7013 119.124 36.208C121.812 34.7147 124.905 33.968 128.404 33.968C131.775 33.968 134.783 34.6933 137.428 36.144C140.116 37.5947 142.185 39.664 143.636 42.352C145.129 44.9973 145.876 48.048 145.876 51.504ZM136.596 48.944C136.553 46.64 135.721 44.8053 134.1 43.44C132.479 42.032 130.495 41.328 128.148 41.328C125.929 41.328 124.052 42.0107 122.516 43.376C121.023 44.6987 120.105 46.5547 119.764 48.944H136.596ZM186.784 70L181.92 65.2C177.781 68.912 172.725 70.768 166.752 70.768C163.467 70.768 160.565 70.2133 158.048 69.104C155.573 67.952 153.653 66.352 152.288 64.304C150.923 62.2133 150.24 59.8027 150.24 57.072C150.24 54.128 151.072 51.4827 152.736 49.136C154.4 46.7893 156.853 44.8907 160.096 43.44C158.944 42.032 158.112 40.688 157.6 39.408C157.088 38.0853 156.832 36.6773 156.832 35.184C156.832 33.136 157.365 31.3013 158.432 29.68C159.499 28.016 161.013 26.7147 162.976 25.776C164.981 24.8373 167.307 24.368 169.952 24.368C172.64 24.368 174.944 24.88 176.864 25.904C178.784 26.928 180.213 28.2933 181.152 30C182.091 31.7067 182.496 33.6053 182.368 35.696H173.664C173.707 34.288 173.365 33.2213 172.64 32.496C171.915 31.728 170.933 31.344 169.696 31.344C168.501 31.344 167.499 31.7067 166.688 32.432C165.92 33.1147 165.536 34.0107 165.536 35.12C165.536 36.1867 165.856 37.2533 166.496 38.32C167.136 39.344 168.181 40.624 169.632 42.16L180.896 53.296C180.981 53.2107 181.045 53.1253 181.088 53.04C181.131 52.9547 181.173 52.8693 181.216 52.784L184.864 46.704H194.208L189.728 54.576C188.875 56.24 187.957 57.8187 186.976 59.312L197.792 70H186.784ZM167.008 63.344C170.507 63.344 173.6 62.1067 176.288 59.632L165.28 48.752C161.141 50.5867 159.072 53.1893 159.072 56.56C159.072 58.48 159.797 60.1013 161.248 61.424C162.699 62.704 164.619 63.344 167.008 63.344Z" fill="#E30B5C"/>
<path d="M217.845 25.328C222.538 25.328 226.655 26.2453 230.197 28.08C233.781 29.9147 236.533 32.5387 238.453 35.952C240.415 39.3227 241.397 43.248 241.397 47.728C241.397 52.208 240.415 56.1333 238.453 59.504C236.533 62.832 233.781 65.4133 230.197 67.248C226.655 69.0827 222.538 70 217.845 70H202.229V25.328H217.845ZM217.525 62.384C222.218 62.384 225.845 61.104 228.405 58.544C230.965 55.984 232.245 52.3787 232.245 47.728C232.245 43.0773 230.965 39.4507 228.405 36.848C225.845 34.2027 222.218 32.88 217.525 32.88H211.189V62.384H217.525ZM281.064 51.504C281.064 52.784 280.978 53.936 280.808 54.96H254.888C255.101 57.52 255.997 59.5253 257.576 60.976C259.154 62.4267 261.096 63.152 263.4 63.152C266.728 63.152 269.096 61.7227 270.504 58.864H280.168C279.144 62.2773 277.181 65.0933 274.28 67.312C271.378 69.488 267.816 70.576 263.592 70.576C260.178 70.576 257.106 69.8293 254.376 68.336C251.688 66.8 249.576 64.6453 248.04 61.872C246.546 59.0987 245.799 55.8987 245.799 52.272C245.799 48.6027 246.546 45.3813 248.04 42.608C249.533 39.8347 251.624 37.7013 254.312 36.208C257 34.7147 260.093 33.968 263.592 33.968C266.962 33.968 269.97 34.6933 272.616 36.144C275.304 37.5947 277.373 39.664 278.824 42.352C280.317 44.9973 281.064 48.048 281.064 51.504ZM271.784 48.944C271.741 46.64 270.909 44.8053 269.288 43.44C267.666 42.032 265.682 41.328 263.336 41.328C261.117 41.328 259.24 42.0107 257.704 43.376C256.21 44.6987 255.293 46.5547 254.952 48.944H271.784ZM301.172 70.576C298.27 70.576 295.668 70.064 293.364 69.04C291.06 67.9733 289.225 66.544 287.86 64.752C286.537 62.96 285.812 60.976 285.684 58.8H294.708C294.878 60.1653 295.54 61.296 296.692 62.192C297.886 63.088 299.358 63.536 301.108 63.536C302.814 63.536 304.137 63.1947 305.076 62.512C306.057 61.8293 306.548 60.9547 306.548 59.888C306.548 58.736 305.95 57.8827 304.756 57.328C303.604 56.7307 301.748 56.0907 299.188 55.408C296.542 54.768 294.366 54.1067 292.66 53.424C290.996 52.7413 289.545 51.696 288.308 50.288C287.113 48.88 286.516 46.9813 286.516 44.592C286.516 42.6293 287.07 40.8373 288.18 39.216C289.332 37.5947 290.953 36.3147 293.044 35.376C295.177 34.4373 297.673 33.968 300.532 33.968C304.756 33.968 308.126 35.0347 310.644 37.168C313.161 39.2587 314.548 42.096 314.804 45.68H306.228C306.1 44.272 305.502 43.1627 304.436 42.352C303.412 41.4987 302.025 41.072 300.276 41.072C298.654 41.072 297.396 41.3707 296.5 41.968C295.646 42.5653 295.22 43.3973 295.22 44.464C295.22 45.6587 295.817 46.576 297.012 47.216C298.206 47.8133 300.062 48.432 302.58 49.072C305.14 49.712 307.252 50.3733 308.916 51.056C310.58 51.7387 312.009 52.8053 313.204 54.256C314.441 55.664 315.081 57.5413 315.124 59.888C315.124 61.936 314.548 63.7707 313.396 65.392C312.286 67.0133 310.665 68.2933 308.532 69.232C306.441 70.128 303.988 70.576 301.172 70.576ZM327.023 30.32C325.444 30.32 324.121 29.8293 323.055 28.848C322.031 27.824 321.519 26.5653 321.519 25.072C321.519 23.5787 322.031 22.3413 323.055 21.36C324.121 20.336 325.444 19.824 327.023 19.824C328.601 19.824 329.903 20.336 330.927 21.36C331.993 22.3413 332.527 23.5787 332.527 25.072C332.527 26.5653 331.993 27.824 330.927 28.848C329.903 29.8293 328.601 30.32 327.023 30.32ZM331.439 34.544V70H322.479V34.544H331.439ZM354.179 33.968C356.824 33.968 359.15 34.5013 361.155 35.568C363.16 36.592 364.739 37.936 365.891 39.6V34.544H374.915V70.256C374.915 73.5413 374.254 76.464 372.931 79.024C371.608 81.6267 369.624 83.6747 366.979 85.168C364.334 86.704 361.134 87.472 357.379 87.472C352.344 87.472 348.206 86.2987 344.963 83.952C341.763 81.6053 339.95 78.4053 339.523 74.352H348.419C348.888 75.9733 349.891 77.2533 351.427 78.192C353.006 79.1733 354.904 79.664 357.123 79.664C359.726 79.664 361.838 78.8747 363.459 77.296C365.08 75.76 365.891 73.4133 365.891 70.256V64.752C364.739 66.416 363.139 67.8027 361.091 68.912C359.086 70.0213 356.782 70.576 354.179 70.576C351.192 70.576 348.462 69.808 345.987 68.272C343.512 66.736 341.55 64.5813 340.099 61.808C338.691 58.992 337.987 55.7707 337.987 52.144C337.987 48.56 338.691 45.3813 340.099 42.608C341.55 39.8347 343.491 37.7013 345.923 36.208C348.398 34.7147 351.15 33.968 354.179 33.968ZM365.891 52.272C365.891 50.096 365.464 48.24 364.611 46.704C363.758 45.1253 362.606 43.9307 361.155 43.12C359.704 42.2667 358.147 41.84 356.483 41.84C354.819 41.84 353.283 42.2453 351.875 43.056C350.467 43.8667 349.315 45.0613 348.419 46.64C347.566 48.176 347.139 50.0107 347.139 52.144C347.139 54.2773 347.566 56.1547 348.419 57.776C349.315 59.3547 350.467 60.5707 351.875 61.424C353.326 62.2773 354.862 62.704 356.483 62.704C358.147 62.704 359.704 62.2987 361.155 61.488C362.606 60.6347 363.758 59.44 364.611 57.904C365.464 56.3253 365.891 54.448 365.891 52.272ZM403.314 34.032C407.538 34.032 410.951 35.376 413.554 38.064C416.157 40.7093 417.458 44.4213 417.458 49.2V70H408.498V50.416C408.498 47.6 407.794 45.4453 406.386 43.952C404.978 42.416 403.058 41.648 400.626 41.648C398.151 41.648 396.189 42.416 394.738 43.952C393.33 45.4453 392.626 47.6 392.626 50.416V70H383.666V34.544H392.626V38.96C393.821 37.424 395.335 36.2293 397.17 35.376C399.047 34.48 401.095 34.032 403.314 34.032Z" fill="white"/>
<path d="M327.947 32.1307C327.214 32.8207 326.086 32.8207 325.354 32.1207L325.247 32.0207C320.185 27.2707 316.878 24.1607 317.003 20.2807C317.061 18.5807 317.9 16.9507 319.26 15.9907C321.805 14.1907 324.949 15.0307 326.646 17.0907C328.343 15.0307 331.486 14.1807 334.031 15.9907C335.391 16.9507 336.23 18.5807 336.288 20.2807C336.423 24.1607 333.106 27.2707 328.044 32.0407L327.947 32.1307Z" fill="#E30B5C"/>
</svg>
