<svg width="166" height="36" viewBox="0 0 166 36" fill="none" xmlns="http://www.w3.org/2000/svg">
<path d="M5.016 23.336H10.536V26H1.656V9.248H5.016V23.336ZM18.5756 26.216C17.2956 26.216 16.1436 25.936 15.1196 25.376C14.0956 24.8 13.2876 23.992 12.6956 22.952C12.1196 21.912 11.8316 20.712 11.8316 19.352C11.8316 17.992 12.1276 16.792 12.7196 15.752C13.3276 14.712 14.1516 13.912 15.1916 13.352C16.2316 12.776 17.3916 12.488 18.6716 12.488C19.9516 12.488 21.1116 12.776 22.1516 13.352C23.1916 13.912 24.0076 14.712 24.5996 15.752C25.2076 16.792 25.5116 17.992 25.5116 19.352C25.5116 20.712 25.1996 21.912 24.5756 22.952C23.9676 23.992 23.1356 24.8 22.0796 25.376C21.0396 25.936 19.8716 26.216 18.5756 26.216ZM18.5756 23.288C19.1836 23.288 19.7516 23.144 20.2796 22.856C20.8236 22.552 21.2556 22.104 21.5756 21.512C21.8956 20.92 22.0556 20.2 22.0556 19.352C22.0556 18.088 21.7196 17.12 21.0476 16.448C20.3916 15.76 19.5836 15.416 18.6236 15.416C17.6636 15.416 16.8556 15.76 16.1996 16.448C15.5596 17.12 15.2396 18.088 15.2396 19.352C15.2396 20.616 15.5516 21.592 16.1756 22.28C16.8156 22.952 17.6156 23.288 18.5756 23.288ZM33.5203 22.904L36.8803 12.704H40.4563L35.5363 26H31.4563L26.5603 12.704H30.1603L33.5203 22.904ZM54.7035 19.064C54.7035 19.544 54.6715 19.976 54.6075 20.36H44.8875C44.9675 21.32 45.3035 22.072 45.8955 22.616C46.4875 23.16 47.2155 23.432 48.0795 23.432C49.3275 23.432 50.2155 22.896 50.7435 21.824H54.3675C53.9835 23.104 53.2475 24.16 52.1595 24.992C51.0715 25.808 49.7355 26.216 48.1515 26.216C46.8715 26.216 45.7195 25.936 44.6955 25.376C43.6875 24.8 42.8955 23.992 42.3195 22.952C41.7595 21.912 41.4795 20.712 41.4795 19.352C41.4795 17.976 41.7595 16.768 42.3195 15.728C42.8795 14.688 43.6635 13.888 44.6715 13.328C45.6795 12.768 46.8395 12.488 48.1515 12.488C49.4155 12.488 50.5435 12.76 51.5355 13.304C52.5435 13.848 53.3195 14.624 53.8635 15.632C54.4235 16.624 54.7035 17.768 54.7035 19.064ZM51.2235 18.104C51.2075 17.24 50.8955 16.552 50.2875 16.04C49.6795 15.512 48.9355 15.248 48.0555 15.248C47.2235 15.248 46.5195 15.504 45.9435 16.016C45.3835 16.512 45.0395 17.208 44.9115 18.104H51.2235ZM70.044 26L68.22 24.2C66.668 25.592 64.772 26.288 62.532 26.288C61.3 26.288 60.212 26.08 59.268 25.664C58.34 25.232 57.62 24.632 57.108 23.864C56.596 23.08 56.34 22.176 56.34 21.152C56.34 20.048 56.652 19.056 57.276 18.176C57.9 17.296 58.82 16.584 60.036 16.04C59.604 15.512 59.292 15.008 59.1 14.528C58.908 14.032 58.812 13.504 58.812 12.944C58.812 12.176 59.012 11.488 59.412 10.88C59.812 10.256 60.38 9.768 61.116 9.416C61.868 9.064 62.74 8.888 63.732 8.888C64.74 8.888 65.604 9.08 66.324 9.464C67.044 9.848 67.58 10.36 67.932 11C68.284 11.64 68.436 12.352 68.388 13.136H65.124C65.14 12.608 65.012 12.208 64.74 11.936C64.468 11.648 64.1 11.504 63.636 11.504C63.188 11.504 62.812 11.64 62.508 11.912C62.22 12.168 62.076 12.504 62.076 12.92C62.076 13.32 62.196 13.72 62.436 14.12C62.676 14.504 63.068 14.984 63.612 15.56L67.836 19.736C67.868 19.704 67.892 19.672 67.908 19.64C67.924 19.608 67.94 19.576 67.956 19.544L69.324 17.264H72.828L71.148 20.216C70.828 20.84 70.484 21.432 70.116 21.992L74.172 26H70.044ZM62.628 23.504C63.94 23.504 65.1 23.04 66.108 22.112L61.98 18.032C60.428 18.72 59.652 19.696 59.652 20.96C59.652 21.68 59.924 22.288 60.468 22.784C61.012 23.264 61.732 23.504 62.628 23.504Z" fill="#E30B5C"/>
<path d="M81.6917 9.248C83.4517 9.248 84.9957 9.592 86.3237 10.28C87.6677 10.968 88.6997 11.952 89.4197 13.232C90.1557 14.496 90.5237 15.968 90.5237 17.648C90.5237 19.328 90.1557 20.8 89.4197 22.064C88.6997 23.312 87.6677 24.28 86.3237 24.968C84.9957 25.656 83.4517 26 81.6917 26H75.8357V9.248H81.6917ZM81.5717 23.144C83.3317 23.144 84.6917 22.664 85.6517 21.704C86.6117 20.744 87.0917 19.392 87.0917 17.648C87.0917 15.904 86.6117 14.544 85.6517 13.568C84.6917 12.576 83.3317 12.08 81.5717 12.08H79.1957V23.144H81.5717ZM105.399 19.064C105.399 19.544 105.367 19.976 105.303 20.36H95.5828C95.6628 21.32 95.9988 22.072 96.5908 22.616C97.1828 23.16 97.9108 23.432 98.7748 23.432C100.023 23.432 100.911 22.896 101.439 21.824H105.063C104.679 23.104 103.943 24.16 102.855 24.992C101.767 25.808 100.431 26.216 98.8468 26.216C97.5668 26.216 96.4148 25.936 95.3908 25.376C94.3828 24.8 93.5908 23.992 93.0148 22.952C92.4548 21.912 92.1748 20.712 92.1748 19.352C92.1748 17.976 92.4548 16.768 93.0148 15.728C93.5748 14.688 94.3588 13.888 95.3668 13.328C96.3748 12.768 97.5348 12.488 98.8468 12.488C100.111 12.488 101.239 12.76 102.231 13.304C103.239 13.848 104.015 14.624 104.559 15.632C105.119 16.624 105.399 17.768 105.399 19.064ZM101.919 18.104C101.903 17.24 101.591 16.552 100.983 16.04C100.375 15.512 99.6308 15.248 98.7508 15.248C97.9188 15.248 97.2148 15.504 96.6388 16.016C96.0788 16.512 95.7348 17.208 95.6068 18.104H101.919ZM112.939 26.216C111.851 26.216 110.875 26.024 110.011 25.64C109.147 25.24 108.459 24.704 107.947 24.032C107.451 23.36 107.179 22.616 107.131 21.8H110.515C110.579 22.312 110.827 22.736 111.259 23.072C111.707 23.408 112.259 23.576 112.915 23.576C113.555 23.576 114.051 23.448 114.403 23.192C114.771 22.936 114.955 22.608 114.955 22.208C114.955 21.776 114.731 21.456 114.283 21.248C113.851 21.024 113.155 20.784 112.195 20.528C111.203 20.288 110.387 20.04 109.747 19.784C109.123 19.528 108.579 19.136 108.115 18.608C107.667 18.08 107.443 17.368 107.443 16.472C107.443 15.736 107.651 15.064 108.067 14.456C108.499 13.848 109.107 13.368 109.891 13.016C110.691 12.664 111.627 12.488 112.699 12.488C114.283 12.488 115.547 12.888 116.491 13.688C117.435 14.472 117.955 15.536 118.051 16.88H114.835C114.787 16.352 114.563 15.936 114.163 15.632C113.779 15.312 113.259 15.152 112.603 15.152C111.995 15.152 111.523 15.264 111.187 15.488C110.867 15.712 110.707 16.024 110.707 16.424C110.707 16.872 110.931 17.216 111.379 17.456C111.827 17.68 112.523 17.912 113.467 18.152C114.427 18.392 115.219 18.64 115.843 18.896C116.467 19.152 117.003 19.552 117.451 20.096C117.915 20.624 118.155 21.328 118.171 22.208C118.171 22.976 117.955 23.664 117.523 24.272C117.107 24.88 116.499 25.36 115.699 25.712C114.915 26.048 113.995 26.216 112.939 26.216ZM122.633 11.12C122.041 11.12 121.545 10.936 121.145 10.568C120.761 10.184 120.569 9.712 120.569 9.152C120.569 8.592 120.761 8.128 121.145 7.76C121.545 7.376 122.041 7.184 122.633 7.184C123.225 7.184 123.713 7.376 124.097 7.76C124.497 8.128 124.697 8.592 124.697 9.152C124.697 9.712 124.497 10.184 124.097 10.568C123.713 10.936 123.225 11.12 122.633 11.12ZM124.289 12.704V26H120.929V12.704H124.289ZM132.817 12.488C133.809 12.488 134.681 12.688 135.433 13.088C136.185 13.472 136.777 13.976 137.209 14.6V12.704H140.593V26.096C140.593 27.328 140.345 28.424 139.849 29.384C139.353 30.36 138.609 31.128 137.617 31.688C136.625 32.264 135.425 32.552 134.017 32.552C132.129 32.552 130.577 32.112 129.361 31.232C128.161 30.352 127.481 29.152 127.321 27.632H130.657C130.833 28.24 131.209 28.72 131.785 29.072C132.377 29.44 133.089 29.624 133.921 29.624C134.897 29.624 135.689 29.328 136.297 28.736C136.905 28.16 137.209 27.28 137.209 26.096V24.032C136.777 24.656 136.177 25.176 135.409 25.592C134.657 26.008 133.793 26.216 132.817 26.216C131.697 26.216 130.673 25.928 129.745 25.352C128.817 24.776 128.081 23.968 127.537 22.928C127.009 21.872 126.745 20.664 126.745 19.304C126.745 17.96 127.009 16.768 127.537 15.728C128.081 14.688 128.809 13.888 129.721 13.328C130.649 12.768 131.681 12.488 132.817 12.488ZM137.209 19.352C137.209 18.536 137.049 17.84 136.729 17.264C136.409 16.672 135.977 16.224 135.433 15.92C134.889 15.6 134.305 15.44 133.681 15.44C133.057 15.44 132.481 15.592 131.953 15.896C131.425 16.2 130.993 16.648 130.657 17.24C130.337 17.816 130.177 18.504 130.177 19.304C130.177 20.104 130.337 20.808 130.657 21.416C130.993 22.008 131.425 22.464 131.953 22.784C132.497 23.104 133.073 23.264 133.681 23.264C134.305 23.264 134.889 23.112 135.433 22.808C135.977 22.488 136.409 22.04 136.729 21.464C137.049 20.872 137.209 20.168 137.209 19.352ZM151.243 12.512C152.827 12.512 154.107 13.016 155.083 14.024C156.059 15.016 156.547 16.408 156.547 18.2V26H153.187V18.656C153.187 17.6 152.923 16.792 152.395 16.232C151.867 15.656 151.147 15.368 150.235 15.368C149.307 15.368 148.571 15.656 148.027 16.232C147.499 16.792 147.235 17.6 147.235 18.656V26H143.875V12.704H147.235V14.36C147.683 13.784 148.251 13.336 148.939 13.016C149.643 12.68 150.411 12.512 151.243 12.512Z" fill="white"/>
<path d="M123.81 11.6489C123.354 12.1181 122.652 12.1181 122.196 11.6421L122.13 11.5741C118.981 8.34412 116.924 6.2293 117.002 3.59087C117.038 2.43487 117.56 1.32646 118.406 0.673651C119.989 -0.55036 121.944 0.020845 123 1.42166C124.055 0.020845 126.011 -0.55716 127.594 0.673651C128.44 1.32646 128.962 2.43487 128.998 3.59087C129.081 6.2293 127.018 8.34411 123.87 11.5877L123.81 11.6489Z" fill="#E30B5C"/>
</svg>
