<svg width="59" height="65" viewBox="0 0 59 65" fill="none" xmlns="http://www.w3.org/2000/svg">
<path d="M29.5 0C33.374 0 37.2101 0.840637 40.7892 2.47392C44.3683 4.10719 47.6203 6.50113 50.3597 9.51903C53.099 12.5369 55.2719 16.1197 56.7544 20.0628C58.237 24.0059 59 28.232 59 32.5C59 36.768 58.237 40.9941 56.7544 44.9372C55.2719 48.8803 53.099 52.4631 50.3596 55.481C47.6203 58.4989 44.3683 60.8928 40.7892 62.5261C37.2101 64.1594 33.374 65 29.5 65L29.5 53.1135C31.9571 53.1135 34.3902 52.5803 36.6603 51.5443C38.9303 50.5084 40.993 48.99 42.7304 47.0759C44.4679 45.1618 45.8461 42.8894 46.7864 40.3884C47.7267 37.8875 48.2107 35.207 48.2107 32.5C48.2107 29.793 47.7267 27.1125 46.7864 24.6116C45.8461 22.1106 44.4679 19.8382 42.7304 17.9241C40.993 16.01 38.9303 14.4916 36.6603 13.4557C34.3902 12.4197 31.9571 11.8865 29.5 11.8865V0Z" fill="white"/>
<path d="M30.4102 39.5361L30.4054 39.5405C30.2184 39.7103 29.9267 39.7098 29.7399 39.5377L29.7399 39.5377L29.7327 39.5311L29.6227 39.4311L29.62 39.4287C26.9636 37.0253 24.8958 35.1473 23.4886 33.403C22.1033 31.6858 21.5152 30.2848 21.5627 28.8526C21.6069 27.614 22.2464 26.4327 23.2478 25.7509L23.2486 25.7504C25.1627 24.4453 27.5834 25.0172 28.9232 26.5854L30.0637 27.9202L31.2041 26.5854C32.5471 25.0135 34.966 24.4391 36.8755 25.7482L36.8795 25.7509C37.8812 26.433 38.5209 27.6148 38.5646 28.8539L38.5646 28.8551C38.6162 30.2851 38.0299 31.6848 36.6422 33.4058C35.2335 35.1528 33.164 37.0349 30.5076 39.4485C30.5067 39.4493 30.5058 39.4501 30.505 39.4508L30.4102 39.5361Z" fill="white" stroke="#E30B5C" stroke-width="3"/>
<rect x="29.5654" y="16.3096" width="10.7892" height="16.3097" transform="rotate(-180 29.5654 16.3096)" fill="white"/>
<rect x="18.7036" y="48.6904" width="10.789" height="16.3097" fill="white"/>
</svg>
