<svg width="100" height="100" viewBox="0 0 100 100" fill="none" xmlns="http://www.w3.org/2000/svg">
<path d="M69.358 29.3906L75.358 35.3906L55.0247 55.7237L41.3164 42.0154C40.5379 41.2353 39.4811 40.7969 38.3789 40.7969C37.2768 40.7969 36.2199 41.2353 35.4414 42.0154L10.4414 67.0571C8.81641 68.6821 8.81641 71.3071 10.4414 72.9321C12.0664 74.5571 14.6914 74.5571 16.3164 72.9321L38.3581 50.8487L52.0663 64.5571C53.6913 66.1821 56.3163 66.1821 57.9413 64.5571L81.233 41.3072L87.233 47.3071C88.5247 48.5987 90.7747 47.6821 90.7747 45.8487V27.9322C90.8163 26.7656 89.8997 25.8489 88.733 25.8489H70.858C68.983 25.8489 68.0663 28.0989 69.358 29.3906Z" fill="#E30B5C"/>
</svg>
