<svg width="122" height="26" viewBox="0 0 122 26" fill="none" xmlns="http://www.w3.org/2000/svg">
<path d="M9.864 25.884C8.016 25.884 6.36 25.584 4.896 24.984C3.432 24.384 2.256 23.496 1.368 22.32C0.504 21.144 0.048 19.728 0 18.072H6.552C6.648 19.008 6.972 19.728 7.524 20.232C8.076 20.712 8.796 20.952 9.684 20.952C10.596 20.952 11.316 20.748 11.844 20.34C12.372 19.908 12.636 19.32 12.636 18.576C12.636 17.952 12.42 17.436 11.988 17.028C11.58 16.62 11.064 16.284 10.44 16.02C9.84 15.756 8.976 15.456 7.848 15.12C6.216 14.616 4.884 14.112 3.852 13.608C2.82 13.104 1.932 12.36 1.188 11.376C0.444 10.392 0.072 9.108 0.072 7.524C0.072 5.172 0.924 3.336 2.628 2.016C4.332 0.672 6.552 0 9.288 0C12.072 0 14.316 0.672 16.02 2.016C17.724 3.336 18.636 5.184 18.756 7.56H12.096C12.048 6.744 11.748 6.108 11.196 5.652C10.644 5.172 9.936 4.932 9.072 4.932C8.328 4.932 7.728 5.136 7.272 5.544C6.816 5.928 6.588 6.492 6.588 7.236C6.588 8.052 6.972 8.688 7.74 9.144C8.508 9.6 9.708 10.092 11.34 10.62C12.972 11.172 14.292 11.7 15.3 12.204C16.332 12.708 17.22 13.44 17.964 14.4C18.708 15.36 19.08 16.596 19.08 18.108C19.08 19.548 18.708 20.856 17.964 22.032C17.244 23.208 16.188 24.144 14.796 24.84C13.404 25.536 11.76 25.884 9.864 25.884Z" fill="white"/>
<path d="M42.0204 25.884C39.6444 25.884 37.4604 25.332 35.4684 24.228C33.5004 23.124 31.9284 21.588 30.7524 19.62C29.6004 17.628 29.0244 15.396 29.0244 12.924C29.0244 10.452 29.6004 8.232 30.7524 6.264C31.9284 4.296 33.5004 2.76 35.4684 1.656C37.4604 0.552 39.6444 0 42.0204 0C44.3964 0 46.5684 0.552 48.5364 1.656C50.5284 2.76 52.0884 4.296 53.2164 6.264C54.3684 8.232 54.9444 10.452 54.9444 12.924C54.9444 15.396 54.3684 17.628 53.2164 19.62C52.0644 21.588 50.5044 23.124 48.5364 24.228C46.5684 25.332 44.3964 25.884 42.0204 25.884ZM42.0204 20.268C44.0364 20.268 45.6444 19.596 46.8444 18.252C48.0684 16.908 48.6804 15.132 48.6804 12.924C48.6804 10.692 48.0684 8.916 46.8444 7.596C45.6444 6.252 44.0364 5.58 42.0204 5.58C39.9804 5.58 38.3484 6.24 37.1244 7.56C35.9244 8.88 35.3244 10.668 35.3244 12.924C35.3244 15.156 35.9244 16.944 37.1244 18.288C38.3484 19.608 39.9804 20.268 42.0204 20.268Z" fill="white"/>
<path d="M88.1772 25.632H82.0212L71.7252 10.044V25.632H65.5692V0.36H71.7252L82.0212 16.02V0.36H88.1772V25.632Z" fill="white"/>
<path d="M121.512 0.36L112.764 17.28V25.632H106.608V17.28L97.8595 0.36H104.844L109.74 10.944L114.6 0.36H121.512Z" fill="white"/>
</svg>
