<svg width="160" height="20" viewBox="0 0 160 20" fill="none" xmlns="http://www.w3.org/2000/svg">
<path d="M8.448 15.744V19.224H6.36C4.872 19.224 3.712 18.864 2.88 18.144C2.048 17.408 1.632 16.216 1.632 14.568V9.24H0V5.832H1.632V2.568H5.736V5.832H8.424V9.24H5.736V14.616C5.736 15.016 5.832 15.304 6.024 15.48C6.216 15.656 6.536 15.744 6.984 15.744H8.448Z" fill="white"/>
<path d="M12.798 4.44C12.078 4.44 11.486 4.232 11.022 3.816C10.574 3.384 10.35 2.856 10.35 2.232C10.35 1.592 10.574 1.064 11.022 0.648C11.486 0.216 12.078 0 12.798 0C13.502 0 14.078 0.216 14.526 0.648C14.99 1.064 15.222 1.592 15.222 2.232C15.222 2.856 14.99 3.384 14.526 3.816C14.078 4.232 13.502 4.44 12.798 4.44ZM14.838 5.832V19.224H10.734V5.832H14.838Z" fill="white"/>
<path d="M16.9961 12.528C16.9961 11.136 17.2761 9.92 17.8361 8.88C18.4121 7.84 19.2041 7.04 20.2121 6.48C21.2361 5.92 22.4041 5.64 23.7161 5.64C25.3961 5.64 26.7961 6.08 27.9161 6.96C29.0521 7.84 29.7961 9.08 30.1481 10.68H25.7801C25.4121 9.656 24.7001 9.144 23.6441 9.144C22.8921 9.144 22.2921 9.44 21.8441 10.032C21.3961 10.608 21.1721 11.44 21.1721 12.528C21.1721 13.616 21.3961 14.456 21.8441 15.048C22.2921 15.624 22.8921 15.912 23.6441 15.912C24.7001 15.912 25.4121 15.4 25.7801 14.376H30.1481C29.7961 15.944 29.0521 17.176 27.9161 18.072C26.7801 18.968 25.3801 19.416 23.7161 19.416C22.4041 19.416 21.2361 19.136 20.2121 18.576C19.2041 18.016 18.4121 17.216 17.8361 16.176C17.2761 15.136 16.9961 13.92 16.9961 12.528Z" fill="white"/>
<path d="M40.5274 19.224L36.4474 13.608V19.224H32.3434V1.464H36.4474V11.28L40.5034 5.832H45.5674L39.9994 12.552L45.6154 19.224H40.5274Z" fill="white"/>
<path d="M59.8033 12.312C59.8033 12.696 59.7793 13.096 59.7313 13.512H50.4433C50.5073 14.344 50.7713 14.984 51.2353 15.432C51.7153 15.864 52.2993 16.08 52.9873 16.08C54.0113 16.08 54.7233 15.648 55.1233 14.784H59.4913C59.2673 15.664 58.8593 16.456 58.2673 17.16C57.6913 17.864 56.9633 18.416 56.0833 18.816C55.2033 19.216 54.2193 19.416 53.1313 19.416C51.8193 19.416 50.6513 19.136 49.6273 18.576C48.6033 18.016 47.8033 17.216 47.2273 16.176C46.6513 15.136 46.3633 13.92 46.3633 12.528C46.3633 11.136 46.6433 9.92 47.2033 8.88C47.7793 7.84 48.5793 7.04 49.6033 6.48C50.6273 5.92 51.8033 5.64 53.1313 5.64C54.4273 5.64 55.5793 5.912 56.5873 6.456C57.5953 7 58.3793 7.776 58.9393 8.784C59.5153 9.792 59.8033 10.968 59.8033 12.312ZM55.6033 11.232C55.6033 10.528 55.3633 9.968 54.8833 9.552C54.4033 9.136 53.8033 8.928 53.0833 8.928C52.3953 8.928 51.8113 9.128 51.3313 9.528C50.8673 9.928 50.5793 10.496 50.4673 11.232H55.6033Z" fill="white"/>
<path d="M69.4324 15.744V19.224H67.3444C65.8564 19.224 64.6964 18.864 63.8644 18.144C63.0324 17.408 62.6164 16.216 62.6164 14.568V9.24H60.9844V5.832H62.6164V2.568H66.7204V5.832H69.4084V9.24H66.7204V14.616C66.7204 15.016 66.8164 15.304 67.0084 15.48C67.2004 15.656 67.5204 15.744 67.9684 15.744H69.4324Z" fill="white"/>
<path d="M88.8064 5.688C90.4704 5.688 91.7904 6.192 92.7664 7.2C93.7584 8.208 94.2544 9.608 94.2544 11.4V19.224H90.1744V11.952C90.1744 11.088 89.9424 10.424 89.4784 9.96C89.0304 9.48 88.4064 9.24 87.6064 9.24C86.8064 9.24 86.1744 9.48 85.7104 9.96C85.2624 10.424 85.0384 11.088 85.0384 11.952V19.224H80.9584V11.952C80.9584 11.088 80.7264 10.424 80.2624 9.96C79.8144 9.48 79.1904 9.24 78.3904 9.24C77.5904 9.24 76.9584 9.48 76.4944 9.96C76.0464 10.424 75.8224 11.088 75.8224 11.952V19.224H71.7184V5.832H75.8224V7.512C76.2384 6.952 76.7824 6.512 77.4544 6.192C78.1264 5.856 78.8864 5.688 79.7344 5.688C80.7424 5.688 81.6384 5.904 82.4224 6.336C83.2224 6.768 83.8464 7.384 84.2944 8.184C84.7584 7.448 85.3904 6.848 86.1904 6.384C86.9904 5.92 87.8624 5.688 88.8064 5.688Z" fill="white"/>
<path d="M96.3086 12.504C96.3086 11.128 96.5646 9.92 97.0766 8.88C97.6046 7.84 98.3166 7.04 99.2126 6.48C100.109 5.92 101.109 5.64 102.213 5.64C103.157 5.64 103.981 5.832 104.685 6.216C105.405 6.6 105.957 7.104 106.341 7.728V5.832H110.445V19.224H106.341V17.328C105.941 17.952 105.381 18.456 104.661 18.84C103.957 19.224 103.133 19.416 102.189 19.416C101.101 19.416 100.109 19.136 99.2126 18.576C98.3166 18 97.6046 17.192 97.0766 16.152C96.5646 15.096 96.3086 13.88 96.3086 12.504ZM106.341 12.528C106.341 11.504 106.053 10.696 105.477 10.104C104.917 9.512 104.229 9.216 103.413 9.216C102.597 9.216 101.901 9.512 101.325 10.104C100.765 10.68 100.485 11.48 100.485 12.504C100.485 13.528 100.765 14.344 101.325 14.952C101.901 15.544 102.597 15.84 103.413 15.84C104.229 15.84 104.917 15.544 105.477 14.952C106.053 14.36 106.341 13.552 106.341 12.528Z" fill="white"/>
<path d="M118.862 19.416C117.694 19.416 116.654 19.216 115.742 18.816C114.83 18.416 114.11 17.872 113.582 17.184C113.054 16.48 112.758 15.696 112.694 14.832H116.75C116.798 15.296 117.014 15.672 117.398 15.96C117.782 16.248 118.254 16.392 118.814 16.392C119.326 16.392 119.718 16.296 119.99 16.104C120.278 15.896 120.422 15.632 120.422 15.312C120.422 14.928 120.222 14.648 119.822 14.472C119.422 14.28 118.774 14.072 117.878 13.848C116.918 13.624 116.118 13.392 115.478 13.152C114.838 12.896 114.286 12.504 113.822 11.976C113.358 11.432 113.126 10.704 113.126 9.792C113.126 9.024 113.334 8.328 113.75 7.704C114.182 7.064 114.806 6.56 115.622 6.192C116.454 5.824 117.438 5.64 118.574 5.64C120.254 5.64 121.574 6.056 122.534 6.888C123.51 7.72 124.07 8.824 124.214 10.2H120.422C120.358 9.736 120.15 9.368 119.798 9.096C119.462 8.824 119.014 8.688 118.454 8.688C117.974 8.688 117.606 8.784 117.35 8.976C117.094 9.152 116.966 9.4 116.966 9.72C116.966 10.104 117.166 10.392 117.566 10.584C117.982 10.776 118.622 10.968 119.486 11.16C120.478 11.416 121.286 11.672 121.91 11.928C122.534 12.168 123.078 12.568 123.542 13.128C124.022 13.672 124.27 14.408 124.286 15.336C124.286 16.12 124.062 16.824 123.614 17.448C123.182 18.056 122.55 18.536 121.718 18.888C120.902 19.24 119.95 19.416 118.862 19.416Z" fill="white"/>
<path d="M134.26 15.744V19.224H132.173C130.684 19.224 129.525 18.864 128.693 18.144C127.861 17.408 127.445 16.216 127.445 14.568V9.24H125.812V5.832H127.445V2.568H131.549V5.832H134.236V9.24H131.549V14.616C131.549 15.016 131.645 15.304 131.837 15.48C132.029 15.656 132.348 15.744 132.796 15.744H134.26Z" fill="white"/>
<path d="M149.171 12.312C149.171 12.696 149.146 13.096 149.098 13.512H139.811C139.874 14.344 140.138 14.984 140.602 15.432C141.082 15.864 141.667 16.08 142.355 16.08C143.379 16.08 144.09 15.648 144.49 14.784H148.859C148.635 15.664 148.227 16.456 147.635 17.16C147.059 17.864 146.331 18.416 145.451 18.816C144.57 19.216 143.587 19.416 142.499 19.416C141.187 19.416 140.019 19.136 138.995 18.576C137.971 18.016 137.171 17.216 136.594 16.176C136.018 15.136 135.73 13.92 135.73 12.528C135.73 11.136 136.01 9.92 136.57 8.88C137.146 7.84 137.947 7.04 138.971 6.48C139.995 5.92 141.171 5.64 142.499 5.64C143.795 5.64 144.947 5.912 145.954 6.456C146.962 7 147.747 7.776 148.307 8.784C148.883 9.792 149.171 10.968 149.171 12.312ZM144.971 11.232C144.971 10.528 144.73 9.968 144.251 9.552C143.771 9.136 143.171 8.928 142.451 8.928C141.762 8.928 141.178 9.128 140.699 9.528C140.234 9.928 139.947 10.496 139.835 11.232H144.971Z" fill="white"/>
<path d="M155.44 8.064C155.92 7.328 156.52 6.752 157.24 6.336C157.96 5.904 158.76 5.688 159.64 5.688V10.032H158.512C157.488 10.032 156.72 10.256 156.208 10.704C155.696 11.136 155.44 11.904 155.44 13.008V19.224H151.336V5.832H155.44V8.064Z" fill="white"/>
</svg>
