<svg width="100" height="100" viewBox="0 0 100 100" fill="none" xmlns="http://www.w3.org/2000/svg">
<path fill-rule="evenodd" clip-rule="evenodd" d="M8.3335 50C8.3335 27 26.9585 8.33334 49.9585 8.33334C73.0002 8.33334 91.6668 27 91.6668 50C91.6668 73 73.0002 91.6667 49.9585 91.6667C26.9585 91.6667 8.3335 73 8.3335 50ZM66.5418 33.3333H78.8335C74.8335 26.4583 68.4585 21.125 60.7918 18.5C63.2918 23.125 65.2085 28.125 66.5418 33.3333ZM50.0002 16.8333C53.4585 21.8333 56.1668 27.375 57.9585 33.3333H42.0418C43.8335 27.375 46.5418 21.8333 50.0002 16.8333ZM16.6668 50C16.6668 52.875 17.0835 55.6667 17.7502 58.3333H31.8335C31.5002 55.5833 31.2502 52.8333 31.2502 50C31.2502 47.1667 31.5002 44.4167 31.8335 41.6667H17.7502C17.0835 44.3333 16.6668 47.125 16.6668 50ZM21.1668 66.6667H33.4585C34.7918 71.875 36.7085 76.875 39.2085 81.5C31.5418 78.875 25.1668 73.5833 21.1668 66.6667ZM21.1668 33.3333H33.4585C34.7918 28.125 36.7085 23.125 39.2085 18.5C31.5418 21.125 25.1668 26.4167 21.1668 33.3333ZM50.0002 83.1667C46.5418 78.1667 43.8335 72.625 42.0418 66.6667H57.9585C56.1668 72.625 53.4585 78.1667 50.0002 83.1667ZM39.5835 50C39.5835 52.8333 39.8752 55.5833 40.2502 58.3333H59.7502C60.1252 55.5833 60.4168 52.8333 60.4168 50C60.4168 47.1667 60.1252 44.375 59.7502 41.6667H40.2502C39.8752 44.375 39.5835 47.1667 39.5835 50ZM60.7918 81.5C63.2918 76.875 65.2085 71.875 66.5418 66.6667H78.8335C74.8335 73.5417 68.4585 78.875 60.7918 81.5ZM68.7502 50C68.7502 52.8333 68.5002 55.5833 68.1668 58.3333H82.2502C82.9168 55.6667 83.3335 52.875 83.3335 50C83.3335 47.125 82.9168 44.3333 82.2502 41.6667H68.1668C68.5002 44.4167 68.7502 47.1667 68.7502 50Z" fill="#E30B5C"/>
</svg>
