<svg width="100" height="100" viewBox="0 0 100 100" fill="none" xmlns="http://www.w3.org/2000/svg">
<path fill-rule="evenodd" clip-rule="evenodd" d="M16.6667 29.1667C16.6667 26.875 18.5417 25 20.8333 25H87.5C89.7917 25 91.6667 23.125 91.6667 20.8333C91.6667 18.5417 89.7917 16.6667 87.5 16.6667H16.6667C12.0833 16.6667 8.33333 20.4167 8.33333 25V70.8333H6.25C2.79167 70.8333 0 73.625 0 77.0833C0 80.5416 2.79167 83.3333 6.25 83.3333H52.0833C55.5417 83.3333 58.3333 80.5416 58.3333 77.0833C58.3333 73.625 55.5417 70.8333 52.0833 70.8333H16.6667V29.1667ZM95.8333 33.3333H70.8333C68.5417 33.3333 66.6667 35.2083 66.6667 37.5V79.1666C66.6667 81.4583 68.5417 83.3333 70.8333 83.3333H95.8333C98.125 83.3333 100 81.4583 100 79.1666V37.5C100 35.2083 98.125 33.3333 95.8333 33.3333ZM75 70.8333H91.6667V41.6667H75V70.8333Z" fill="#E30B5C"/>
</svg>
