<svg width="100" height="100" viewBox="0 0 100 100" fill="none" xmlns="http://www.w3.org/2000/svg">
<path fill-rule="evenodd" clip-rule="evenodd" d="M12.4998 8.33334H87.4998C92.0832 8.33334 95.8332 12.0833 95.8332 16.6667V66.6667C95.8332 71.25 92.0832 75 87.4998 75H58.3332L65.1248 85.2084C66.9998 87.9584 64.9998 91.6667 61.6665 91.6667H38.3332C34.9998 91.6667 33.0415 87.9584 34.8748 85.2084L41.6665 75H12.4998C7.9165 75 4.1665 71.25 4.1665 66.6667V16.6667C4.1665 12.0833 7.9165 8.33334 12.4998 8.33334ZM12.4998 58.3333H87.4998V20.8333C87.4998 18.5417 85.6248 16.6667 83.3332 16.6667H16.6665C14.3748 16.6667 12.4998 18.5417 12.4998 20.8333V58.3333Z" fill="#E30B5C"/>
</svg>
