<svg width="100" height="100" viewBox="0 0 100 100" fill="none" xmlns="http://www.w3.org/2000/svg">
<path fill-rule="evenodd" clip-rule="evenodd" d="M16.6668 20.8333H83.3335C87.9168 20.8333 91.6668 24.5833 91.6668 29.1667V70.8333C91.6668 75.4167 87.9168 79.1667 83.3335 79.1667H16.6668C12.0835 79.1667 8.3335 75.4167 8.3335 70.8333L8.37516 29.1667C8.37516 24.5833 12.0835 20.8333 16.6668 20.8333ZM54.1668 33.3333H45.8335V41.6667H54.1668V33.3333ZM45.8335 45.8333H54.1668V54.1667H45.8335V45.8333ZM41.6668 33.3333H33.3335V41.6667H41.6668V33.3333ZM33.3335 45.8333H41.6668V54.1667H33.3335V45.8333ZM20.8335 54.1667H29.1668V45.8333H20.8335V54.1667ZM29.1668 41.6667H20.8335V33.3333H29.1668V41.6667ZM37.5002 70.8333H62.5002C64.7918 70.8333 66.6668 68.9583 66.6668 66.6667C66.6668 64.375 64.7918 62.5 62.5002 62.5H37.5002C35.2085 62.5 33.3335 64.375 33.3335 66.6667C33.3335 68.9583 35.2085 70.8333 37.5002 70.8333ZM66.6668 54.1667H58.3335V45.8333H66.6668V54.1667ZM58.3335 41.6667H66.6668V33.3333H58.3335V41.6667ZM79.1668 54.1667H70.8335V45.8333H79.1668V54.1667ZM70.8335 41.6667H79.1668V33.3333H70.8335V41.6667Z" fill="#E30B5C"/>
</svg>
